<svg width="196" height="196" viewBox="0 0 196 196" fill="none" xmlns="http://www.w3.org/2000/svg">
<path d="M98 23V8M98 188V173M188 98H173M23 98H8M151.03 44.97L161.64 34.36M34.36 161.64L44.96 151.04M161.64 161.64L151.04 151.04M44.96 44.96L34.36 34.36M138 98C138 108.609 133.786 118.783 126.284 126.284C118.783 133.786 108.609 138 98 138C87.3913 138 77.2172 133.786 69.7157 126.284C62.2143 118.783 58 108.609 58 98C58 87.3913 62.2143 77.2172 69.7157 69.7157C77.2172 62.2143 87.3913 58 98 58C108.609 58 118.783 62.2143 126.284 69.7157C133.786 77.2172 138 87.3913 138 98Z" stroke="#FFDD55" stroke-width="16" stroke-linecap="round"/>
</svg>
