<svg width="62" height="61" viewBox="0 0 62 61" fill="none" xmlns="http://www.w3.org/2000/svg">
<ellipse cx="31" cy="30.5" rx="31" ry="30.5" fill="#182627"/>
<path d="M31 10V6M31 54V50M55 30H51M11 30H7M45.1413 15.8587L47.9707 13.0293M14.0293 46.9707L16.856 44.144M47.9707 46.9707L45.144 44.144M16.856 15.856L14.0293 13.0293M41.6667 30C41.6667 32.829 40.5429 35.5421 38.5425 37.5425C36.5421 39.5429 33.829 40.6667 31 40.6667C28.171 40.6667 25.4579 39.5429 23.4575 37.5425C21.4571 35.5421 20.3333 32.829 20.3333 30C20.3333 27.171 21.4571 24.4579 23.4575 22.4575C25.4579 20.4571 28.171 19.3333 31 19.3333C33.829 19.3333 36.5421 20.4571 38.5425 22.4575C40.5429 24.4579 41.6667 27.171 41.6667 30Z" stroke="#FFDD55" stroke-width="4" stroke-linecap="round"/>
</svg>
